<?xml version="1.0" standalone="no"?><!DOCTYPE svg PUBLIC "-//W3C//DTD SVG 1.1//EN" "http://www.w3.org/Graphics/SVG/1.1/DTD/svg11.dtd"><svg t="1593448573518" class="icon" viewBox="0 0 1024 1024" version="1.1" xmlns="http://www.w3.org/2000/svg" p-id="3192" xmlns:xlink="http://www.w3.org/1999/xlink" width="200" height="200"><defs><style type="text/css"></style></defs><path d="M512 938.658133C276.736 938.658133 85.333333 747.255467 85.333333 511.991467 85.333333 276.727467 276.736 85.3248 512 85.3248 747.264 85.3248 938.666667 276.727467 938.666667 511.991467 938.666667 747.255467 747.264 938.658133 512 938.658133M512 42.658133C252.8 42.658133 42.666667 252.791467 42.666667 511.991467 42.666667 771.2128 252.8 981.3248 512 981.3248 771.2 981.3248 981.333333 771.2128 981.333333 511.991467 981.333333 252.791467 771.2 42.658133 512 42.658133" p-id="3193"></path><path d="M775.042133 316.471467C763.4368 314.551467 752.471467 322.5728 750.6368 334.199467 743.618133 378.679467 713.303467 397.3248 685.1648 395.490133 661.911467 394.210133 634.114133 377.975467 632.279467 336.5888 631.746133 324.8128 620.951467 315.4048 610.0288 316.215467 598.2528 316.7488 589.122133 326.690133 589.655467 338.466133 592.535467 403.490133 639.938133 435.703467 682.775467 438.0928 684.567467 438.199467 686.3808 438.242133 688.194133 438.242133 732.1408 438.242133 782.103467 408.482133 792.770133 340.8768 794.626133 329.2288 786.6688 318.306133 775.042133 316.471467" p-id="3194"></path><path d="M314.833067 438.242133C358.801067 438.242133 408.7424 408.482133 419.409067 340.8768 421.265067 329.2288 413.307733 318.306133 401.681067 316.471467 390.033067 314.551467 379.1104 322.5728 377.297067 334.199467 370.2784 378.679467 339.771733 397.3248 311.803733 395.490133 288.571733 394.210133 260.753067 377.975467 258.9184 336.5888 258.4064 324.8128 247.633067 315.4048 236.667733 316.215467 224.891733 316.7488 215.761067 326.690133 216.2944 338.466133 219.195733 403.490133 266.577067 435.703467 309.4144 438.0928 311.2064 438.199467 313.019733 438.242133 314.833067 438.242133" p-id="3195"></path><path d="M401.1456 598.5344C439.374933 661.275733 492.558933 667.7184 525.710933 667.7184 530.510933 667.7184 534.9056 667.5904 538.7456 667.4624 541.476267 667.3984 543.950933 667.313067 546.126933 667.313067 557.924267 667.313067 567.460267 657.755733 567.460267 645.979733 567.460267 634.1824 557.924267 624.6464 546.126933 624.6464 543.566933 624.6464 540.644267 624.731733 537.444267 624.817067 509.988267 625.6064 468.4096 626.929067 437.582933 576.347733 417.2736 542.9824 423.822933 501.403733 442.788267 489.2224 453.1776 482.545067 473.0816 488.881067 490.6176 494.491733 514.5536 502.235733 528.548267 492.571733 534.670933 486.107733 557.838933 461.745067 549.668267 408.177067 504.526933 288.4544 500.366933 277.425067 488.0576 271.857067 477.0496 276.017067 466.020267 280.155733 460.430933 292.465067 464.612267 303.4944 504.6336 409.649067 506.254933 443.5264 504.228267 454.065067 504.036267 454.001067 503.844267 453.937067 503.630933 453.873067 478.414933 445.787733 447.054933 435.761067 419.7056 453.339733 378.7456 479.665067 370.084267 547.505067 401.1456 598.5344" p-id="3196"></path><path d="M724.625067 654.784C604.283733 775.104 408.4864 775.146667 288.145067 654.784 279.803733 646.442667 266.321067 646.442667 257.979733 654.784 249.6384 663.125333 249.6384 676.608 257.979733 684.949333 326.459733 753.429333 416.4224 787.669333 506.4064 787.669333 596.347733 787.669333 686.3104 753.429333 754.7904 684.949333 763.131733 676.608 763.131733 663.125333 754.7904 654.784 746.449067 646.442667 732.9664 646.442667 724.625067 654.784" p-id="3197"></path></svg>